<svg width="170" height="170" viewBox="0 0 170 170" fill="none" xmlns="http://www.w3.org/2000/svg">
<path d="M0 169.397L170 0.446045V169.397H0Z" fill="white"/>
<mask id="mask0_455_29280" style="mask-type:luminance" maskUnits="userSpaceOnUse" x="81" y="72" width="58" height="71">
<path d="M138.104 72.3651H81.6631V142.863H138.104V72.3651Z" fill="white"/>
</mask>
<g mask="url(#mask0_455_29280)">
<path fill-rule="evenodd" clip-rule="evenodd" d="M116.839 107.333L116.81 107.319L116.839 107.304V107.333ZM116.788 107.311L105.23 101.779L116.788 89.6561V107.304V107.311Z" fill="#721511"/>
<path fill-rule="evenodd" clip-rule="evenodd" d="M116.79 107.333V72.3651L128.697 84.2763V101.443L116.79 107.326V107.333Z" fill="#E41F13"/>
<path fill-rule="evenodd" clip-rule="evenodd" d="M102.972 82.8331L114.588 88.3878L102.972 100.561V82.8331Z" fill="#721511"/>
<path fill-rule="evenodd" clip-rule="evenodd" d="M102.972 82.8331V117.801L91.064 105.89V88.7231L102.972 82.8404V82.8331Z" fill="#E41F13"/>
<path fill-rule="evenodd" clip-rule="evenodd" d="M86.8886 123.093C86.8886 123.924 86.6044 124.566 86.036 125.011C85.4675 125.455 84.6514 125.681 83.5874 125.681H82.6182V128.918H81.6562V120.702H83.7915C85.8465 120.702 86.874 121.497 86.874 123.093H86.8886ZM82.6182 124.872H83.4781C84.3234 124.872 84.9429 124.741 85.3218 124.464C85.7007 124.187 85.8902 123.757 85.8902 123.152C85.8902 122.605 85.708 122.204 85.3582 121.934C85.0012 121.672 84.4473 121.541 83.6894 121.541H82.6182V124.879V124.872ZM89.1112 125.499V128.918H88.1493V120.702H90.4084C91.4213 120.702 92.1719 120.899 92.6456 121.278C93.1266 121.665 93.3671 122.24 93.3671 123.02C93.3671 124.107 92.8132 124.843 91.7128 125.222L93.9501 128.91H92.8132L90.8165 125.492H89.0967L89.1112 125.499ZM89.1112 124.682H90.423C91.1007 124.682 91.5962 124.544 91.9096 124.282C92.223 124.019 92.3833 123.611 92.3833 123.079C92.3833 122.547 92.2229 122.146 91.9023 121.905C91.5817 121.665 91.0643 121.541 90.3574 121.541H89.1112V124.675V124.682ZM102.44 124.799C102.44 126.111 102.105 127.146 101.441 127.904C100.771 128.655 99.8456 129.034 98.6577 129.034C97.4699 129.034 96.5079 128.663 95.8521 127.926C95.1889 127.19 94.861 126.148 94.861 124.799C94.861 123.451 95.1889 122.43 95.8521 121.686C96.5152 120.95 97.4553 120.586 98.6723 120.586C99.8893 120.586 100.786 120.958 101.449 121.708C102.112 122.459 102.447 123.487 102.447 124.806L102.44 124.799ZM95.8666 124.799C95.8666 125.907 96.0998 126.753 96.5808 127.329C97.0618 127.904 97.7468 128.189 98.6504 128.189C99.5541 128.189 100.254 127.904 100.72 127.329C101.186 126.76 101.42 125.907 101.42 124.792C101.42 123.677 101.186 122.853 100.72 122.284C100.261 121.716 99.5686 121.424 98.665 121.424C97.7614 121.424 97.0618 121.708 96.5808 122.284C96.1071 122.86 95.8666 123.698 95.8666 124.792V124.799ZM106.025 124.806L108.226 120.702H109.261L106.514 125.732V128.91H105.544V125.776L102.797 120.702H103.846L106.025 124.806ZM115.105 128.918H110.514V120.702H115.105V121.548H111.469V124.194H114.887V125.032H111.469V128.058H115.105V128.91V128.918ZM120.578 121.439C119.675 121.439 118.96 121.737 118.428 122.343C117.904 122.948 117.641 123.764 117.641 124.814C117.641 125.863 117.889 126.716 118.399 127.307C118.902 127.897 119.624 128.189 120.564 128.189C121.139 128.189 121.795 128.087 122.531 127.883V128.721C121.963 128.932 121.256 129.042 120.418 129.042C119.201 129.042 118.268 128.677 117.612 127.941C116.949 127.205 116.621 126.162 116.621 124.814C116.621 123.968 116.781 123.225 117.102 122.59C117.423 121.956 117.882 121.46 118.479 121.118C119.077 120.775 119.784 120.6 120.593 120.6C121.46 120.6 122.211 120.761 122.859 121.067L122.451 121.891C121.824 121.599 121.205 121.453 120.578 121.453V121.439ZM127.326 128.918H126.364V121.555H123.755V120.71H129.928V121.555H127.319V128.918H127.326ZM138.104 124.799C138.104 126.111 137.769 127.146 137.106 127.904C136.435 128.655 135.51 129.034 134.322 129.034C133.134 129.034 132.172 128.663 131.517 127.926C130.853 127.19 130.525 126.148 130.525 124.799C130.525 123.451 130.853 122.43 131.517 121.686C132.18 120.95 133.12 120.586 134.337 120.586C135.554 120.586 136.45 120.958 137.113 121.708C137.776 122.459 138.112 123.487 138.112 124.806L138.104 124.799ZM131.531 124.799C131.531 125.907 131.764 126.753 132.245 127.329C132.726 127.904 133.411 128.189 134.315 128.189C135.218 128.189 135.918 127.904 136.384 127.329C136.851 126.753 137.084 125.907 137.084 124.792C137.084 123.677 136.851 122.853 136.384 122.284C135.925 121.716 135.233 121.424 134.322 121.424C133.411 121.424 132.719 121.708 132.238 122.284C131.764 122.86 131.524 123.698 131.524 124.792L131.531 124.799Z" fill="#514C53"/>
<path fill-rule="evenodd" clip-rule="evenodd" d="M92.6311 142.688H89.3008L83.9227 133.372H83.8498C83.9591 135.019 84.0101 136.193 84.0101 136.893V142.688H81.6636V130.368H84.972L90.3428 139.597H90.4011C90.3137 137.993 90.2773 136.863 90.2773 136.2V130.368H92.6311V142.688ZM106.79 136.513C106.79 138.555 106.288 140.122 105.267 141.215C104.254 142.309 102.797 142.855 100.902 142.855C99.0075 142.855 97.5501 142.309 96.5371 141.215C95.5242 140.122 95.0141 138.547 95.0141 136.499C95.0141 134.45 95.5242 132.883 96.5371 131.804C97.5501 130.726 99.0148 130.179 100.917 130.179C102.819 130.179 104.269 130.726 105.275 131.812C106.28 132.905 106.783 134.472 106.783 136.513H106.79ZM97.7687 136.513C97.7687 137.891 98.031 138.926 98.5557 139.626C99.0804 140.319 99.8675 140.669 100.91 140.669C103.001 140.669 104.05 139.283 104.05 136.513C104.05 133.743 103.008 132.351 100.931 132.351C99.8893 132.351 99.1023 132.701 98.5703 133.401C98.0383 134.101 97.776 135.136 97.776 136.513H97.7687ZM111.797 135.836H112.642C113.473 135.836 114.085 135.697 114.471 135.42C114.865 135.143 115.062 134.713 115.062 134.122C115.062 133.532 114.858 133.124 114.464 132.876C114.063 132.628 113.437 132.504 112.591 132.504H111.797V135.836ZM111.797 137.964V142.688H109.173V130.368H112.773C114.457 130.368 115.696 130.674 116.505 131.28C117.313 131.892 117.714 132.818 117.714 134.05C117.714 134.779 117.517 135.42 117.109 135.989C116.709 136.55 116.147 136.995 115.411 137.315C117.27 140.085 118.479 141.871 119.041 142.68H116.133L113.181 137.957H111.79L111.797 137.964ZM125.548 142.688H122.925V132.541H119.565V130.368H128.9V132.541H125.541V142.688H125.548ZM138.104 142.688H130.985V130.368H138.104V132.504H133.601V135.216H137.784V137.352H133.601V140.523H138.104V142.68V142.688Z" fill="#514C53"/>
</g>
<path d="M62.0006 22.8979L24.0188 22.7011L23.8148 61.3213C23.516 117.633 23.3192 146.004 9.29102 160.219L160.832 9.57988C146.418 23.2916 118.062 23.1895 62.0006 22.8907V22.8979Z" fill="url(#paint0_linear_455_29280)"/>
<defs>
<linearGradient id="paint0_linear_455_29280" x1="8.66071" y1="11.2753" x2="178.571" y2="174.947" gradientUnits="userSpaceOnUse">
<stop offset="0.25" stop-color="white"/>
<stop offset="0.56" stop-color="#575756"/>
</linearGradient>
</defs>
</svg>
