<svg width="30" height="44" viewBox="0 0 30 44" fill="none" xmlns="http://www.w3.org/2000/svg">
<g id="logo_sanluis">
<path id="Vector" d="M3.03833 15.6877C2.4173 15.6877 1.9124 15.5774 1.5235 15.3569C1.13461 15.1306 0.835739 14.8113 0.626777 14.3993C0.417816 13.9872 0.272766 13.5027 0.191521 12.9454C0.116018 12.3825 0.0783223 11.7614 0.0783223 11.0824V9.5937H1.82822V11.1521C1.82822 12.2258 1.90362 12.9948 2.05452 13.4591C2.21127 13.9175 2.54491 14.1469 3.05567 14.1469C3.40968 14.1469 3.66804 14.0655 3.83053 13.903C3.99887 13.7348 4.10622 13.4678 4.15258 13.1022C4.19905 12.7365 4.22223 12.2547 4.22223 11.657C4.22223 10.9722 4.10037 10.3831 3.85663 9.88976C3.61864 9.39644 3.2733 8.92338 2.8206 8.47068L1.81945 7.46953C1.52924 7.17358 1.24488 6.85142 0.966269 6.50315C0.687762 6.14914 0.455623 5.74866 0.269844 5.30181C0.0899138 4.85497 0 4.34421 0 3.76965C0 2.99771 0.0812447 2.33021 0.243734 1.76723C0.406224 1.20437 0.702282 0.769009 1.13169 0.461471C1.5612 0.153824 2.17064 0 2.95991 0C3.58094 0 4.07719 0.107351 4.44864 0.322162C4.82583 0.536865 5.10737 0.844513 5.29304 1.245C5.48456 1.63963 5.60935 2.10976 5.66741 2.65529C5.73122 3.20082 5.76318 3.80442 5.76318 4.46608V5.37147H4.03949V4.34421C4.03949 3.72317 4.01327 3.20668 3.96106 2.7946C3.91469 2.37668 3.81601 2.06329 3.66511 1.85433C3.51421 1.64537 3.27914 1.54094 2.95991 1.54094C2.6697 1.54094 2.43182 1.61352 2.24604 1.75857C2.06611 1.89788 1.93557 2.1155 1.85433 2.41156C1.77308 2.70751 1.73246 3.08762 1.73246 3.55191C1.73246 3.95824 1.78175 4.29481 1.88044 4.56184C1.97912 4.82301 2.1271 5.06675 2.32447 5.29315C2.52758 5.51944 2.77424 5.78647 3.06444 6.09401L4.10914 7.19969C4.66041 7.77425 5.11029 8.41847 5.45845 9.13234C5.81246 9.84036 5.98958 10.6645 5.98958 11.6048C5.98958 12.4521 5.90541 13.1805 5.73707 13.7899C5.57458 14.3993 5.28145 14.8694 4.85778 15.2002C4.43412 15.5252 3.8276 15.6877 3.03833 15.6877ZM10.3434 15.5136L12.6679 0.191521H14.8356L17.3689 15.5136H15.6714L15.2361 12.5885H12.4589L12.0584 15.5136H10.3434ZM12.6591 11.126H15.0097L13.7996 3.02967H13.7735L12.6591 11.126ZM22.454 15.5136V0.191521H23.8124L27.3644 10.621L27.1813 6.18977V0.191521H28.7748V15.5136H27.4511L24.0128 4.99709L24.1168 8.8625V15.5136H22.454Z" fill="#D6D6D6"/>
<path id="Vector_2" d="M0.565674 42.8021V18.6044H2.36779V41.3135H10.9029V42.8021H0.565674Z" fill="#D6D6D6"/>
<path id="Vector_3" d="M10.7656 34.1093C10.0111 34.1093 9.41047 33.9613 8.96351 33.6653C8.52241 33.3635 8.20609 32.9079 8.01457 32.2985C7.82305 31.6891 7.72729 30.92 7.72729 29.9915V18.6044H9.52941V29.9479C9.52941 30.4993 9.54967 30.9724 9.5904 31.367C9.63102 31.7616 9.73837 32.0634 9.91245 32.2724C10.0865 32.4814 10.371 32.5858 10.7656 32.5858C11.1661 32.5858 11.4505 32.4814 11.6188 32.2724C11.787 32.0634 11.8887 31.7646 11.9235 31.3757C11.9642 30.981 11.9844 30.508 11.9844 29.9567V18.6044H13.7778V29.9915C13.7778 30.92 13.6849 31.6891 13.4992 32.2985C13.3135 32.9079 13.0001 33.3635 12.559 33.6653C12.1237 33.9613 11.5259 34.1093 10.7656 34.1093Z" fill="#D6D6D6"/>
<path id="Vector_4" d="M17.759 33.9264V18.6044H19.5617V33.9264H17.759Z" fill="#D6D6D6"/>
<path id="Vector_5" d="M26.1545 34.1006C25.5327 34.1006 25.0279 33.9903 24.639 33.7698C24.2501 33.5434 23.9523 33.2242 23.7432 32.8122C23.5341 32.4001 23.389 31.9155 23.3077 31.3582C23.2319 30.7952 23.194 30.1743 23.194 29.4952V28.0066H24.9445V29.5649C24.9445 30.6386 25.0193 31.4076 25.1709 31.8719C25.3269 32.3304 25.6605 32.5597 26.1718 32.5597C26.5261 32.5597 26.7839 32.4784 26.9464 32.3159C27.1143 32.1476 27.2226 31.8806 27.2681 31.515C27.3147 31.1494 27.3385 30.6676 27.3385 30.0698C27.3385 29.3849 27.2161 28.7959 26.9724 28.3026C26.7351 27.8092 26.3896 27.3363 25.9368 26.8835L24.9359 25.8823C24.6455 25.5864 24.3606 25.2642 24.0822 24.9161C23.8038 24.562 23.572 24.1616 23.3857 23.7146C23.2059 23.2678 23.116 22.757 23.116 22.1824C23.116 21.4105 23.1972 20.7431 23.3597 20.1801C23.5222 19.6172 23.8179 19.1819 24.248 18.8743C24.6769 18.5666 25.2868 18.4129 26.0754 18.4129C26.6972 18.4129 27.1934 18.5203 27.5649 18.735C27.9419 18.9498 28.2236 19.2573 28.4088 19.6578C28.6005 20.0524 28.7251 20.5226 28.7836 21.0681C28.8475 21.6136 28.8789 22.2172 28.8789 22.8789V23.7843H27.1555V22.757C27.1555 22.136 27.1295 21.6195 27.0775 21.2074C27.0309 20.7895 26.9323 20.4761 26.7806 20.2672C26.6301 20.0583 26.395 19.9537 26.0754 19.9537C25.7862 19.9537 25.5479 20.0263 25.3616 20.1715C25.1817 20.3107 25.0518 20.5283 24.9705 20.8244C24.8893 21.1203 24.8481 21.5005 24.8481 21.9648C24.8481 22.371 24.8979 22.7077 24.9965 22.9746C25.0951 23.2358 25.2435 23.4795 25.4406 23.7059C25.6432 23.9323 25.8902 24.1993 26.1805 24.5069L27.2248 25.6125C27.7762 26.1871 28.2257 26.8313 28.5745 27.5451C28.9288 28.2533 29.1053 29.0774 29.1053 30.0176C29.1053 30.8649 29.0208 31.5933 28.8529 32.2027C28.6904 32.8122 28.398 33.2822 27.9733 33.613C27.5498 33.9381 26.9431 34.1006 26.1545 34.1006Z" fill="#D6D6D6"/>
<path id="Vector_6" d="M14.2411 43.0667C13.9133 43.0667 13.6521 42.9873 13.4574 42.8285C13.2627 42.6672 13.1232 42.4315 13.0387 42.1216C12.9541 41.8117 12.9119 41.4352 12.9119 40.9921V38.1761C12.9119 37.879 12.931 37.6075 12.9695 37.3617C13.0079 37.1132 13.0758 36.8993 13.1731 36.72C13.273 36.5382 13.4114 36.3986 13.588 36.3013C13.7647 36.2014 13.9914 36.1514 14.268 36.1514C14.5319 36.1514 14.747 36.1988 14.9134 36.2936C15.0799 36.3857 15.2092 36.519 15.3014 36.6932C15.3937 36.8648 15.4564 37.0696 15.4897 37.3078C15.5256 37.5434 15.5435 37.8047 15.5435 38.0916V38.8407H14.7636V38.0877C14.7636 37.6677 14.7329 37.354 14.6714 37.1465C14.6125 36.9365 14.478 36.8314 14.268 36.8314C14.0452 36.8314 13.8954 36.939 13.8186 37.1541C13.7442 37.3667 13.7071 37.6767 13.7071 38.0839V41.0113C13.7071 41.3392 13.7212 41.6056 13.7494 41.8104C13.7776 42.0128 13.83 42.16 13.9069 42.2523C13.9864 42.3444 14.099 42.3905 14.245 42.3905C14.4576 42.3905 14.5972 42.2829 14.6637 42.0678C14.7303 41.8526 14.7636 41.4992 14.7636 41.0075V40.2583H15.5512V40.9998C15.5512 41.4505 15.5115 41.8296 15.4321 42.137C15.3553 42.4443 15.222 42.6761 15.0326 42.8323C14.843 42.9886 14.5792 43.0667 14.2411 43.0667ZM16.5942 42.986V36.2244H17.3894V39.1173H18.4728V36.2244H19.2681V42.986H18.4728V39.7666H17.3894V42.986H16.5942ZM20.4532 42.986V36.2244H21.2483V42.986H20.4532ZM23.69 43.0667C23.3618 43.0667 23.1007 42.9873 22.9057 42.8285C22.7118 42.6672 22.5721 42.4315 22.4876 42.1216C22.4031 41.8117 22.3608 41.4352 22.3608 40.9921V38.1761C22.3608 37.879 22.3793 37.6075 22.4183 37.3617C22.4562 37.1132 22.5244 36.8993 22.6219 36.72C22.7216 36.5382 22.8602 36.3986 23.0368 36.3013C23.2134 36.2014 23.4398 36.1514 23.7171 36.1514C23.9803 36.1514 24.1959 36.1988 24.3616 36.2936C24.5284 36.3857 24.6584 36.519 24.7505 36.6932C24.8426 36.8648 24.9054 37.0696 24.9379 37.3078C24.9748 37.5434 24.9921 37.8047 24.9921 38.0916V38.8407H24.2121V38.0877C24.2121 37.6677 24.1818 37.354 24.1201 37.1465C24.0616 36.9365 23.9272 36.8314 23.7171 36.8314C23.4939 36.8314 23.3444 36.939 23.2675 37.1541C23.1928 37.3667 23.156 37.6767 23.156 38.0839V41.0113C23.156 41.3392 23.17 41.6056 23.1982 41.8104C23.2264 42.0128 23.2784 42.16 23.3553 42.2523C23.4354 42.3444 23.5481 42.3905 23.6932 42.3905C23.9067 42.3905 24.0453 42.2829 24.1125 42.0678C24.1786 41.8526 24.2121 41.4992 24.2121 41.0075V40.2583H24.9997V40.9998C24.9997 41.4505 24.9607 41.8296 24.8805 42.137C24.8036 42.4443 24.6704 42.6761 24.4808 42.8323C24.2912 42.9886 24.028 43.0667 23.69 43.0667ZM27.3103 43.0629C26.9723 43.0629 26.7047 42.9886 26.5076 42.84C26.3126 42.6914 26.1739 42.4674 26.0894 42.1677C26.0071 41.868 25.9659 41.4928 25.9659 41.042V38.0608C25.9659 37.6715 26.0049 37.3334 26.0808 37.0465C26.1577 36.7597 26.2953 36.5369 26.4924 36.3782C26.6896 36.2194 26.969 36.14 27.3298 36.14C27.6017 36.14 27.8227 36.186 27.9949 36.2782C28.1661 36.3679 28.2982 36.4972 28.3903 36.6662C28.4845 36.8327 28.5506 37.0338 28.5864 37.2694C28.6221 37.5051 28.6394 37.7689 28.6394 38.0608V41.042C28.6394 41.4928 28.5994 41.868 28.517 42.1677C28.4379 42.4674 28.3004 42.6914 28.1054 42.84C27.9137 42.9886 27.6482 43.0629 27.3103 43.0629ZM27.3103 42.379C27.4565 42.379 27.5681 42.3381 27.645 42.2561C27.7219 42.1716 27.7739 42.0319 27.8021 41.8373C27.8302 41.6426 27.8443 41.3801 27.8443 41.0497V38.0148C27.8443 37.6101 27.8129 37.3104 27.749 37.1158C27.6851 36.9211 27.5453 36.8237 27.3298 36.8237C27.1066 36.8237 26.956 36.9211 26.877 37.1158C26.8 37.3078 26.7611 37.6063 26.7611 38.0109V41.0497C26.7611 41.3827 26.7751 41.6465 26.8033 41.8412C26.8315 42.0332 26.8856 42.1716 26.9647 42.2561C27.0438 42.3381 27.1597 42.379 27.3103 42.379Z" fill="#D6D6D6"/>
</g>
</svg>
