<svg width="32" height="32" viewBox="0 0 32 32" fill="none" xmlns="http://www.w3.org/2000/svg">
<path d="M26.5867 26.5833L30.75 30.75M19.9167 16.5833V23.25M23.25 19.9167H16.5833M12.4167 0.75H19.0833M0.75 12.4167V19.0833M6.58333 30.75C5.03624 30.75 3.55251 30.1354 2.45854 29.0415C1.36458 27.9475 0.75 26.4638 0.75 24.9167M24.9167 0.75C26.4638 0.75 27.9475 1.36458 29.0415 2.45854C30.1354 3.55251 30.75 5.03624 30.75 6.58333M0.75 6.58333C0.75 5.03624 1.36458 3.55251 2.45854 2.45854C3.55251 1.36458 5.03624 0.75 6.58333 0.75M29.0833 19.9167C29.0833 17.4855 28.1176 15.1539 26.3985 13.4349C24.6794 11.7158 22.3478 10.75 19.9167 10.75C17.4855 10.75 15.1539 11.7158 13.4349 13.4349C11.7158 15.1539 10.75 17.4855 10.75 19.9167C10.75 22.3478 11.7158 24.6794 13.4349 26.3985C15.1539 28.1176 17.4855 29.0833 19.9167 29.0833C22.3478 29.0833 24.6794 28.1176 26.3985 26.3985C28.1176 24.6794 29.0833 22.3478 29.0833 19.9167Z" stroke="#0DACB5" stroke-width="1.5" stroke-linecap="round" stroke-linejoin="round"/>
</svg>
