<svg width="27" height="32" viewBox="0 0 27 32" fill="none" xmlns="http://www.w3.org/2000/svg">
<path d="M8.25024 17.25V4.49997C8.25024 3.90323 8.4873 3.33094 8.90925 2.90898C9.33121 2.48702 9.90351 2.24997 10.5002 2.24997C11.097 2.24997 11.6693 2.48702 12.0912 2.90898C12.5132 3.33094 12.7502 3.90323 12.7502 4.49997V15.75M12.7502 15V12C12.7502 11.4032 12.9873 10.8309 13.4093 10.409C13.8312 9.98702 14.4035 9.74997 15.0002 9.74997C15.597 9.74997 16.1693 9.98702 16.5912 10.409C17.0132 10.8309 17.2502 11.4032 17.2502 12V15.75M17.2502 13.5C17.2502 12.9032 17.4873 12.3309 17.9093 11.909C18.3312 11.487 18.9035 11.25 19.5002 11.25C20.097 11.25 20.6693 11.487 21.0912 11.909C21.5132 12.3309 21.7502 12.9032 21.7502 13.5V15.75" stroke="#0DACB5" stroke-width="1.5" stroke-linecap="round" stroke-linejoin="round"/>
<path d="M21.75 15C21.75 14.4033 21.9871 13.831 22.409 13.409C22.831 12.9871 23.4033 12.75 24 12.75C24.5967 12.75 25.169 12.9871 25.591 13.409C26.0129 13.831 26.25 14.4033 26.25 15V21.75C26.25 24.1369 25.3018 26.4261 23.614 28.114C21.9261 29.8018 19.6369 30.75 17.25 30.75H14.25H14.562C13.0715 30.7503 11.6043 30.3803 10.2921 29.6734C8.97987 28.9665 7.86377 27.9448 7.044 26.7L6.75 26.25C6.282 25.532 4.639 22.668 1.821 17.658C1.53367 17.1473 1.45692 16.5446 1.60707 15.9782C1.75722 15.4118 2.12242 14.9263 2.625 14.625C3.16055 14.3046 3.78766 14.1719 4.40709 14.248C5.02653 14.324 5.6029 14.6045 6.045 15.045L8.25 17.25M3.75 2.25L2.25 0.75M2.25 8.25H0.75M17.25 2.25L18.75 0.75M18.75 6.75H20.25" stroke="#0DACB5" stroke-width="1.5" stroke-linecap="round" stroke-linejoin="round"/>
</svg>
