<svg width="31" height="32" viewBox="0 0 31 32" fill="none" xmlns="http://www.w3.org/2000/svg">
<path d="M22.3812 1.98733L23.5475 0.905752C23.6546 0.806215 23.7962 0.75054 23.9435 0.750016M23.9435 0.750016C24.0893 0.748958 24.2301 0.802008 24.338 0.898608L25.5536 1.98733M23.9435 0.750016V12.1445C23.8138 12.1348 23.6912 12.0825 23.5953 11.9959L22.3798 10.9072M25.5536 10.9086L24.3844 11.9902C24.3257 12.0444 24.2562 12.086 24.1803 12.1123C24.1043 12.1386 24.0237 12.1491 23.9435 12.1431M28.4938 4.88346L29.5919 6.03505C29.6929 6.14059 29.7495 6.28004 29.75 6.42511M29.75 6.42511C29.7507 6.56891 29.6963 6.70768 29.5977 6.81374L28.4938 8.01105M29.75 6.42511H18.1891M19.4439 8.01105L18.3458 6.85946C18.2905 6.80174 18.248 6.73331 18.221 6.65853C18.1941 6.58375 18.1832 6.50425 18.1891 6.42511M18.1891 6.42511C18.199 6.29738 18.2521 6.17662 18.34 6.0822L19.4439 4.88346M4.90936 17.4038L8.00773 20.0199V6.0722C7.99964 5.73854 8.05937 5.40665 8.18341 5.09606C8.30745 4.78546 8.4933 4.50244 8.73002 4.26363C8.96674 4.02483 9.24955 3.83506 9.56183 3.7055C9.8741 3.57593 10.2095 3.50919 10.5484 3.50919C10.8872 3.50919 11.2226 3.57593 11.5349 3.7055C11.8472 3.83506 12.13 4.02483 12.3667 4.26363C12.6034 4.50244 12.7893 4.78546 12.9133 5.09606C13.0374 5.40665 13.0971 5.73854 13.089 6.0722V13.5833L17.4261 14.2662C20.2271 14.6806 21.6269 14.8863 22.6133 15.4693C24.2423 16.4308 25.423 17.8739 25.423 19.9828C25.423 21.4515 25.0546 22.436 24.1596 25.0835C23.591 26.7623 23.3067 27.6024 22.8439 28.2668C22.0818 29.3614 20.9566 30.1605 19.6614 30.5271C18.8738 30.75 17.9759 30.75 16.1801 30.75H14.657C12.268 30.75 11.0742 30.75 10.0109 30.3185C9.82017 30.2407 9.63375 30.153 9.45248 30.0556C8.44145 29.5155 7.68861 28.6026 6.18149 26.7751L1.3062 20.8614C0.912987 20.3789 0.716374 19.7693 0.754713 19.1517C0.793052 18.534 1.06359 17.9526 1.51357 17.5208C1.96355 17.089 2.56069 16.8378 3.18852 16.8162C3.81635 16.7945 4.42985 17.004 4.90936 17.4038Z" stroke="#0DACB5" stroke-width="1.5" stroke-linecap="round" stroke-linejoin="round"/>
</svg>
